<?xml version="1.0" standalone="no"?>
<!DOCTYPE svg PUBLIC "-//W3C//DTD SVG 20010904//EN"
 "http://www.w3.org/TR/2001/REC-SVG-20010904/DTD/svg10.dtd">
<svg version="1.0" xmlns="http://www.w3.org/2000/svg"
 width="1140.000000pt" height="713.000000pt" viewBox="0 0 1140.000000 713.000000"
 preserveAspectRatio="xMidYMid meet">

<g transform="translate(0.000000,713.000000) scale(0.100000,-0.100000)"
fill="#000000" stroke="none">
<path d="M0 4409 c0 -2580 1 -2723 18 -2736 16 -14 16 -14 0 -9 -17 5 -18 -40
-18 -767 0 -425 3 -801 6 -835 l7 -62 372 0 372 1 7 107 c4 59 11 125 15 147
6 38 8 40 39 37 19 -2 44 -15 62 -34 18 -17 37 -28 45 -24 9 3 15 0 15 -8 0
-13 27 -31 43 -28 4 1 7 -2 7 -8 0 -16 76 -49 122 -53 25 -2 70 -19 110 -40
36 -21 72 -37 80 -37 7 0 27 -14 45 -30 29 -27 38 -30 100 -30 75 1 70 13 -10
24 -27 4 -51 14 -54 22 -3 8 -9 14 -14 14 -6 0 -23 10 -38 21 -16 12 -34 18
-40 15 -6 -4 -11 -2 -11 3 0 6 -32 27 -70 46 -39 19 -95 51 -125 70 -30 19
-62 35 -71 35 -25 0 -84 23 -84 32 0 4 -9 8 -21 8 -11 0 -33 6 -47 14 -15 8
-42 20 -60 27 -39 14 -57 50 -42 80 6 10 15 19 20 19 14 0 12 38 -5 85 -21 56
-10 181 16 188 15 4 16 10 7 43 -5 22 -12 67 -15 101 -5 63 -5 63 21 63 33 0
34 16 1 24 -23 6 -25 11 -27 69 0 34 0 69 1 77 10 70 -4 766 -20 975 -1 6 4
32 9 60 11 52 3 75 -24 75 -8 0 -14 5 -14 11 0 7 9 9 24 5 22 -5 23 -3 31 62
12 104 14 121 30 222 9 52 14 107 11 122 -3 15 -1 30 5 34 6 3 9 14 6 24 -2 9
0 24 5 33 4 9 15 67 24 129 27 198 34 243 40 258 3 8 12 58 20 110 16 99 19
117 30 163 4 18 2 27 -6 27 -7 0 1 13 18 29 17 17 45 58 64 93 18 35 36 65 40
68 6 5 41 79 78 165 29 67 44 205 24 225 -21 21 -50 1 -77 -53 -15 -28 -36
-63 -48 -77 l-21 -25 6 86 c5 76 4 89 -14 112 -11 14 -20 30 -20 35 0 30 -105
51 -275 57 -156 5 -221 16 -277 45 -21 11 -47 20 -57 20 -30 0 -51 32 -46 70
2 19 11 102 20 183 8 82 17 152 19 155 2 4 7 50 10 102 4 52 11 129 16 170 6
41 14 136 19 211 6 94 14 146 26 169 9 18 15 43 12 56 -2 13 -1 24 4 24 4 0
10 35 14 78 4 42 12 92 18 110 9 25 8 37 0 52 -7 10 -8 20 -3 22 5 2 11 61 13
131 3 71 8 131 11 134 3 4 15 -2 26 -12 29 -26 26 0 -4 35 -22 27 -24 35 -20
142 2 62 7 138 11 168 4 30 8 60 8 65 1 6 5 84 9 175 5 91 12 172 16 180 5 9
11 92 14 185 3 94 11 188 17 210 7 22 13 64 15 93 l3 52 -310 0 -309 0 0
-2721z m905 -369 c3 -5 -1 -10 -10 -10 -9 0 -13 5 -10 10 3 6 8 10 10 10 2 0
7 -4 10 -10z m85 -430 c0 -5 -2 -10 -4 -10 -3 0 -8 5 -11 10 -3 6 -1 10 4 10
6 0 11 -4 11 -10z m-168 -605 c-8 -32 -11 -36 -17 -21 -5 11 -3 26 3 37 7 10
13 31 13 46 2 27 2 27 6 3 2 -14 0 -43 -5 -65z m-12 -54 c0 -6 -4 -13 -10 -16
-5 -3 -10 1 -10 9 0 9 5 16 10 16 6 0 10 -4 10 -9z m-11 -58 c-1 -16 -4 -39
-9 -53 l-7 -25 -7 25 c-5 20 -4 53 3 78 1 1 6 2 11 2 6 0 10 -12 9 -27z m-24
-93 c-3 -5 -10 -10 -16 -10 -5 0 -9 5 -9 10 0 6 7 10 16 10 8 0 12 -4 9 -10z
m-6 -59 c8 -5 9 -11 3 -15 -6 -4 -9 -16 -7 -28 7 -37 -7 -42 -22 -7 -20 47 -8
71 26 50z m-19 -307 c0 -8 -4 -12 -10 -9 -5 3 -10 10 -10 16 0 5 5 9 10 9 6 0
10 -7 10 -16z m-600 -154 c0 -5 -2 -10 -4 -10 -3 0 -8 5 -11 10 -3 6 -1 10 4
10 6 0 11 -4 11 -10z m140 -510 c-8 -5 -19 -10 -25 -10 -5 0 -3 5 5 10 8 5 20
10 25 10 6 0 3 -5 -5 -10z m-4 -178 c1 -7 0 -8 -2 -3 -3 5 -13 7 -23 4 -10 -3
-21 -1 -24 4 -3 5 6 9 20 8 15 0 27 -6 29 -13z m129 -614 c6 -4 2 -8 -7 -8
-10 0 -18 7 -18 17 0 9 3 12 8 7 4 -5 12 -12 17 -16z m362 -240 c-3 -8 -6 -5
-6 6 -1 11 2 17 5 13 3 -3 4 -12 1 -19z m-692 -198 c3 -5 1 -10 -4 -10 -6 0
-11 5 -11 10 0 6 2 10 4 10 3 0 8 -4 11 -10z m82 -52 c-3 -8 -6 -5 -6 6 -1 11
2 17 5 13 3 -3 4 -12 1 -19z m613 -28 c0 -5 -4 -10 -10 -10 -5 0 -10 5 -10 10
0 6 5 10 10 10 6 0 10 -4 10 -10z m0 -140 c0 -5 -4 -10 -10 -10 -5 0 -10 5
-10 10 0 6 5 10 10 10 6 0 10 -4 10 -10z m-530 -10 c0 -5 -4 -10 -10 -10 -5 0
-10 5 -10 10 0 6 5 10 10 10 6 0 10 -4 10 -10z m-100 -67 c0 -21 -16 -15 -34
12 -16 25 -16 25 9 13 14 -6 25 -17 25 -25z m435 -23 c3 -5 1 -10 -4 -10 -6 0
-11 5 -11 10 0 6 2 10 4 10 3 0 8 -4 11 -10z m-305 -115 c0 -8 -8 -19 -19 -24
-16 -9 -18 -7 -18 14 0 18 5 25 18 25 11 0 19 -7 19 -15z m378 -28 c8 -10 6
-13 -9 -14 -10 -1 -19 5 -19 13 0 17 14 18 28 1z"/>
<path d="M4895 6943 c-4 -104 -9 -219 -11 -257 -1 -42 -7 -72 -15 -77 -27 -16
-12 -443 19 -519 3 -8 6 -23 7 -32 3 -29 53 -122 82 -154 37 -41 130 -104 153
-104 10 0 20 -4 22 -10 4 -11 116 -15 178 -6 53 9 98 -7 150 -52 19 -17 38
-28 42 -26 4 3 8 1 8 -5 0 -6 11 -13 25 -17 21 -5 52 -35 108 -104 7 -8 17
-33 24 -55 14 -48 57 -169 71 -199 20 -43 42 -164 46 -253 7 -158 -26 -272
-169 -568 -24 -49 -53 -110 -65 -135 -27 -58 -63 -124 -72 -130 -14 -11 -50
-189 -50 -247 0 -35 -4 -63 -9 -63 -5 0 -9 -19 -9 -42 0 -78 -12 -79 -77 -12
-32 33 -76 76 -99 95 -22 20 -51 51 -64 70 -30 42 -59 67 -86 75 -43 11 -136
256 -159 420 -4 27 -9 56 -10 64 -2 8 -6 47 -10 85 -8 84 -37 172 -69 206 -13
14 -49 33 -80 43 -31 10 -56 23 -56 28 0 6 -10 30 -21 54 l-22 43 25 30 c14
16 33 60 43 98 9 37 33 104 52 148 30 69 73 243 73 295 0 10 -8 28 -18 40 -18
22 -19 22 -50 6 -40 -21 -52 -44 -69 -131 -9 -49 -20 -77 -38 -94 l-25 -26 0
28 c0 17 -10 37 -24 50 -14 14 -25 37 -28 62 -8 66 -47 192 -79 261 -55 116
-90 141 -154 112 -30 -14 -30 -14 -5 -73 11 -26 20 -58 20 -71 0 -14 6 -24 15
-24 8 0 12 -6 9 -13 -2 -7 7 -28 21 -47 14 -19 25 -43 25 -55 0 -12 5 -26 12
-33 6 -6 13 -19 15 -27 26 -112 5 -101 -60 29 -32 62 -57 118 -57 124 0 5 -7
12 -15 16 -8 3 -15 17 -15 30 0 24 -9 53 -34 105 -13 28 -46 43 -63 29 -7 -6
-13 -28 -13 -50 0 -21 -4 -37 -9 -34 -14 9 -41 -4 -41 -20 0 -8 -4 -14 -10
-14 -5 0 -10 -9 -10 -20 0 -11 -12 -39 -26 -62 -24 -37 -26 -47 -20 -106 4
-35 10 -71 15 -81 4 -9 11 -36 15 -61 4 -25 15 -63 25 -85 10 -22 24 -76 30
-120 31 -212 49 -259 118 -303 67 -43 83 -57 83 -72 0 -8 5 -28 12 -46 9 -26
8 -42 -6 -89 -19 -59 -19 -61 14 -170 53 -176 83 -298 134 -546 13 -64 38
-151 55 -193 17 -43 31 -86 31 -97 0 -11 8 -36 19 -57 10 -20 21 -48 24 -62
12 -49 92 -183 124 -207 32 -25 142 -93 149 -93 2 0 77 -55 167 -123 180 -136
276 -201 354 -241 59 -29 64 -37 88 -121 9 -33 20 -73 25 -90 36 -120 47 -165
41 -165 -3 0 -1 -4 6 -8 6 -4 18 -34 26 -67 8 -33 21 -74 28 -92 16 -39 8 -50
-26 -35 -16 7 -36 35 -55 76 -33 70 -125 176 -153 176 -10 0 -14 5 -11 15 8
20 -100 70 -123 56 -9 -4 -23 -6 -32 -4 -26 7 -106 -41 -109 -65 -4 -23 -17
-29 -27 -12 -8 14 -37 -5 -106 -71 -33 -31 -59 -64 -59 -74 0 -10 10 -38 21
-62 12 -24 19 -46 17 -48 -8 -8 -215 199 -231 231 -16 31 -116 114 -138 114
-6 0 -26 9 -43 19 -17 11 -66 29 -109 42 -73 21 -78 21 -96 5 -15 -14 -24 -15
-40 -7 -29 16 -58 13 -78 -7 -10 -10 -30 -25 -44 -34 -27 -17 -45 -13 -164 42
-58 27 -123 47 -175 54 -34 5 -55 2 -87 -14 -23 -11 -49 -20 -57 -20 -8 0 -17
-4 -21 -9 -3 -5 -22 -15 -43 -21 -70 -22 -118 -48 -167 -92 -102 -91 -227
-170 -330 -209 -48 -17 -211 -94 -225 -105 -8 -7 -31 -19 -50 -28 -57 -25
-144 -76 -156 -92 -6 -8 -16 -14 -23 -14 -6 0 -16 -9 -23 -20 -7 -11 -19 -20
-27 -20 -7 0 -44 -28 -80 -63 -59 -56 -153 -127 -167 -127 -5 0 -66 -26 -146
-63 -27 -12 -48 -27 -48 -34 0 -7 -7 -13 -15 -13 -9 0 -37 -11 -63 -25 -26
-14 -59 -25 -74 -25 -15 0 -46 -7 -68 -16 -33 -14 -40 -21 -40 -44 0 -24 -6
-30 -34 -40 -19 -6 -36 -15 -38 -20 -5 -14 -107 -31 -147 -24 -20 3 -51 13
-69 22 -32 16 -34 16 -47 -1 -12 -17 -15 -17 -47 13 -18 18 -28 29 -21 26 6
-4 15 -2 18 4 10 16 -39 92 -105 162 -46 49 -66 81 -90 141 -16 43 -30 88 -30
100 0 12 -9 40 -19 63 -10 23 -22 60 -26 83 -4 22 -11 41 -16 41 -5 0 -9 6 -9
13 0 25 -55 67 -88 67 -18 0 -32 -4 -32 -10 0 -5 -8 -10 -19 -10 -26 0 -45
-24 -91 -120 -33 -68 -38 -93 -41 -183 -2 -90 13 -196 37 -260 9 -23 24 -73
34 -112 25 -99 69 -199 123 -287 26 -41 47 -80 47 -87 0 -41 134 -211 166
-211 7 0 14 -5 16 -12 2 -6 31 -13 65 -16 57 -4 62 -3 78 22 13 19 26 26 48
26 70 0 197 71 197 110 0 12 10 20 35 24 19 4 61 20 94 36 33 17 63 30 66 30
3 0 19 -13 34 -29 16 -16 32 -27 37 -23 4 4 4 2 1 -4 -9 -16 43 -85 99 -130
26 -22 56 -50 68 -62 44 -49 100 -73 163 -70 59 2 93 15 93 33 0 6 20 17 46
24 25 7 50 19 57 25 7 6 24 17 40 23 15 7 27 17 27 23 0 5 9 10 20 10 19 0
110 71 177 138 17 18 41 32 52 32 12 0 21 5 21 11 0 5 4 8 8 5 5 -3 25 4 45
14 21 11 38 19 39 18 8 -6 140 65 144 77 4 8 13 15 21 15 15 0 77 42 103 70
41 44 103 80 185 106 50 15 97 34 106 41 8 7 24 13 35 13 25 1 37 11 107 92
l59 68 49 -58 c49 -57 64 -104 36 -115 -26 -10 -83 -148 -144 -347 -98 -324
-164 -499 -197 -522 -6 -4 -7 -8 -3 -8 4 0 -2 -15 -15 -32 -47 -66 -103 -177
-113 -222 -3 -17 -15 -42 -26 -57 -10 -15 -19 -39 -19 -53 0 -32 49 -89 98
-111 20 -10 44 -23 52 -30 29 -23 123 -55 162 -55 35 0 40 2 35 20 -4 15 0 20
14 20 10 0 19 -6 19 -14 0 -8 3 -21 6 -30 4 -10 1 -16 -9 -16 -20 0 -63 -128
-48 -143 16 -16 13 -31 -4 -17 -17 14 -37 4 -34 -18 3 -33 -1 -53 -10 -48 -4
3 -16 -3 -25 -13 -19 -21 -3 -42 17 -22 14 14 74 15 82 1 3 -5 18 -10 33 -10
l27 1 -38 34 c-37 32 -38 35 -23 57 23 36 62 148 70 201 7 43 5 48 -16 56
l-23 10 23 0 c15 1 22 7 22 21 0 24 9 25 36 5 10 -8 33 -15 50 -15 17 0 37 -6
43 -14 6 -7 32 -19 56 -26 25 -7 48 -16 50 -21 3 -4 30 -15 61 -24 l55 -16 -6
-42 c-3 -23 -7 -50 -9 -60 -1 -10 -8 -22 -16 -27 -7 -5 -15 -33 -18 -64 -2
-31 -8 -56 -13 -56 -5 0 -9 -4 -9 -10 0 -5 15 -10 34 -10 30 0 33 3 29 24 -3
13 2 37 11 54 9 17 16 44 16 59 0 41 11 73 24 73 6 0 30 -8 54 -17 36 -15 42
-21 37 -40 -13 -54 78 6 109 71 18 38 21 96 6 96 -7 0 -7 6 0 19 13 25 13 128
0 136 -6 4 -6 12 0 23 5 9 13 75 19 147 6 73 15 131 21 133 16 6 36 50 50 112
7 30 16 60 21 65 4 6 11 30 15 53 4 23 10 42 15 42 5 0 5 8 2 17 -5 12 -2 15
10 10 14 -5 17 1 18 41 0 26 6 64 12 85 l12 39 40 -29 c22 -16 58 -48 80 -71
22 -23 54 -56 72 -74 17 -18 37 -38 45 -43 7 -6 25 -20 41 -32 16 -12 35 -19
47 -16 13 4 20 0 20 -9 0 -8 12 -21 28 -29 15 -8 46 -28 69 -46 24 -17 53 -35
65 -38 90 -27 157 -78 184 -142 15 -35 47 -49 89 -39 19 5 27 1 37 -18 24 -44
143 -126 184 -126 8 0 35 -10 60 -21 35 -17 57 -20 98 -16 42 4 59 1 82 -14
16 -10 38 -16 50 -13 12 3 25 1 28 -5 15 -23 102 -4 191 43 17 9 36 16 43 16
7 0 28 11 46 25 44 33 126 75 149 75 9 0 17 4 17 9 0 5 13 11 29 14 29 6 89
57 108 91 12 22 33 13 33 -15 0 -31 29 -22 51 16 19 31 26 35 62 35 68 1 117
41 131 107 5 21 22 44 46 63 28 22 37 36 33 50 -3 11 0 20 6 20 10 0 15 -14
12 -32 0 -5 6 -8 14 -8 13 0 20 18 16 43 0 4 11 7 27 7 51 0 111 87 113 162 0
24 6 59 13 78 12 32 19 36 122 72 168 58 254 100 352 175 26 20 49 30 59 26
10 -4 14 -2 11 8 -6 17 41 61 58 55 8 -3 11 0 8 8 -3 8 5 21 17 30 20 14 23
14 35 -2 7 -9 16 -14 20 -9 4 4 3 12 -4 19 -8 8 -8 14 1 24 31 35 37 44 37 60
0 10 28 47 63 84 69 73 113 136 154 222 16 32 33 57 39 58 6 0 17 14 24 30 7
17 16 30 21 30 5 0 9 4 9 10 0 14 43 102 103 210 33 61 63 101 82 113 17 10
59 37 95 60 36 23 70 44 75 47 32 16 181 128 234 175 35 31 79 67 99 80 77 52
296 289 376 407 23 35 63 93 89 130 82 121 126 202 157 294 64 188 94 369 105
638 7 180 29 267 128 511 28 70 56 167 77 265 23 109 44 180 71 238 50 107 50
133 0 178 -36 33 -38 38 -33 80 3 28 0 55 -9 70 -17 32 1 105 37 149 13 16 48
62 78 100 61 80 158 175 201 198 42 21 77 62 73 84 -5 30 -85 30 -145 -1 -52
-26 -80 -52 -69 -63 4 -4 17 -1 29 7 62 39 153 72 146 53 -2 -6 -49 -48 -104
-95 -56 -47 -114 -103 -130 -124 -16 -22 -52 -62 -80 -90 -45 -45 -80 -107
-109 -197 -11 -33 -108 -67 -189 -67 -91 0 -102 7 -93 55 6 32 4 37 -13 42
-28 7 -27 40 3 105 97 209 105 234 113 348 3 51 -1 100 -13 152 -23 106 -5
147 32 71 18 -39 25 -74 45 -230 7 -51 16 -93 20 -93 5 0 12 0 17 0 4 0 7 26
8 58 0 31 8 98 17 147 23 122 22 186 -4 241 -21 48 -28 139 -11 156 12 12 49
-35 87 -111 26 -53 27 -55 23 -234 -2 -131 0 -181 9 -184 12 -4 19 58 29 265
6 121 5 124 -20 163 -14 21 -26 45 -26 53 0 7 -6 32 -14 54 -13 35 -13 42 0
53 21 17 49 -12 85 -91 37 -78 36 -71 26 -242 -12 -191 1 -219 59 -130 37 56
57 113 48 136 -3 9 -1 23 5 30 9 11 8 28 -5 73 -18 60 -25 215 -11 230 27 26
78 -195 80 -344 1 -62 -8 -91 -49 -148 -11 -16 -38 -64 -59 -105 -21 -41 -47
-92 -58 -113 -20 -38 -18 -55 3 -42 6 4 31 48 55 99 24 50 62 110 83 133 62
66 99 193 71 245 -6 11 -15 50 -20 86 -20 137 -59 232 -97 232 -7 0 -21 -9
-32 -20 -17 -17 -20 -34 -20 -102 l-1 -83 -41 80 c-46 91 -63 114 -97 126 -19
8 -29 5 -48 -12 -12 -13 -23 -28 -23 -36 0 -8 -12 -13 -29 -13 -44 0 -56 -23
-56 -111 0 -59 5 -82 18 -97 13 -14 17 -36 17 -90 0 -39 -4 -74 -10 -77 -5 -3
-26 28 -45 70 -41 86 -59 100 -86 64 -29 -38 -33 -84 -14 -165 15 -65 16 -87
6 -164 -10 -75 -22 -112 -72 -223 -49 -106 -62 -144 -64 -192 -2 -33 -12 -84
-22 -114 -14 -43 -26 -59 -58 -79 -115 -71 -127 -101 -132 -322 -4 -169 -35
-384 -63 -445 -5 -11 -17 -54 -26 -95 -9 -41 -20 -93 -25 -115 -16 -68 -47
-238 -53 -285 -8 -71 -27 -153 -42 -182 -8 -15 -14 -46 -14 -69 0 -53 -29
-104 -104 -184 -31 -33 -85 -103 -121 -156 -35 -54 -68 -100 -73 -103 -5 -3
-12 23 -15 59 -6 58 -28 125 -59 180 -7 11 -18 32 -25 47 -7 14 -20 29 -28 32
-8 3 -15 10 -15 16 0 24 -56 92 -99 120 -25 16 -58 40 -74 52 -20 16 -30 19
-38 11 -8 -8 10 -33 69 -93 86 -88 103 -111 71 -103 -10 3 -27 2 -36 -2 -10
-4 -38 -9 -63 -12 -25 -2 -63 -9 -84 -14 -35 -9 -42 -8 -53 8 -7 10 -16 23
-21 28 -13 17 1 155 18 165 8 5 11 12 8 16 -11 10 34 42 52 37 10 -3 10 -1 -2
7 -25 16 -22 47 7 82 35 42 32 82 -15 182 -22 47 -40 92 -40 100 0 8 -5 18
-10 21 -11 7 -10 2 15 -97 l12 -47 -28 30 c-30 32 -41 37 -33 14 4 -9 0 -15
-10 -15 -9 0 -16 4 -16 9 0 4 -11 6 -24 4 -14 -3 -25 1 -29 10 -8 22 27 90 62
119 33 28 51 65 50 101 0 17 -3 15 -12 -10 -7 -18 -27 -47 -44 -65 -94 -96
-104 -116 -80 -181 20 -55 34 -192 18 -183 -6 4 -11 2 -11 -3 0 -6 -4 -11 -10
-11 -5 0 -10 6 -10 14 0 7 -14 16 -31 20 -48 9 -119 7 -119 -4 0 -5 -15 -10
-32 -10 -18 0 -42 -7 -52 -15 -11 -8 -28 -15 -39 -15 -10 0 -28 -5 -40 -12
-12 -7 -27 -13 -34 -14 -31 -5 -104 -73 -116 -107 -6 -15 -2 -18 16 -15 14 2
23 11 25 24 2 15 12 24 32 28 17 3 65 22 107 42 99 47 188 75 200 63 5 -5 32
-12 61 -16 l51 -6 -25 -38 c-13 -21 -24 -49 -24 -61 0 -51 -2 -57 -21 -47 -26
14 -59 11 -59 -5 0 -14 63 -31 80 -21 14 9 32 -34 25 -62 -4 -19 -10 -23 -23
-17 -9 4 -56 9 -104 10 -54 1 -94 6 -103 14 -9 7 -27 10 -45 6 -35 -6 -41 9
-8 20 l23 7 -24 8 c-12 5 -27 7 -32 4 -5 -3 -30 1 -57 8 -55 17 -95 12 -134
-14 -36 -26 -46 -24 -62 15 -8 19 -37 56 -65 82 -28 27 -51 52 -51 56 0 4 18
19 40 33 72 45 95 107 66 175 -12 29 -11 37 4 64 10 17 21 51 24 76 l5 45 -13
-40 c-15 -48 -23 -50 -42 -10 l-14 30 6 -38 c7 -50 -11 -75 -36 -52 -16 15
-17 13 -16 -22 1 -35 -2 -39 -44 -59 -25 -12 -52 -29 -59 -38 -17 -21 -31 -20
-31 1 0 37 -13 0 -14 -41 -2 -28 -9 -53 -21 -66 -22 -25 -34 -25 -51 -2 -12
15 -13 10 -8 -33 9 -75 11 -80 32 -64 15 13 16 12 4 -2 -7 -10 -21 -15 -30
-12 -12 3 -22 -4 -30 -21 -19 -42 -31 -30 -35 37 -3 57 -3 56 -5 -20 -1 -46
-6 -83 -12 -83 -5 0 -17 -11 -26 -25 -19 -29 -26 -160 -10 -187 8 -12 7 -21
-2 -30 -24 -24 -14 -83 23 -137 19 -28 35 -56 35 -63 0 -53 132 -218 167 -210
15 3 18 -24 3 -33 -16 -10 -12 -67 6 -86 15 -17 14 -21 -15 -55 -18 -20 -51
-74 -74 -120 -23 -46 -45 -84 -50 -84 -15 0 -47 84 -47 124 0 22 8 64 17 93
15 49 16 57 2 81 -15 27 -37 32 -71 18 -12 -6 -17 -2 -20 14 -5 36 -23 22 -26
-21 -2 -23 -14 -65 -27 -93 -13 -28 -31 -75 -41 -103 l-19 -53 -80 0 -80 0
-45 58 c-42 53 -50 58 -105 70 -33 7 -80 10 -105 7 -24 -3 -83 0 -130 6 -72
10 -96 19 -159 57 -41 24 -82 52 -93 61 -10 10 -60 41 -111 70 -50 29 -121 70
-157 92 -39 24 -73 38 -85 35 -14 -4 -37 12 -83 58 l-63 64 4 89 c4 77 25 239
41 313 3 14 10 54 16 90 15 84 48 194 66 217 7 10 14 28 14 41 0 13 4 21 8 18
18 -11 94 157 166 364 49 143 68 334 46 460 -19 107 -40 194 -50 204 -5 5 -10
20 -10 32 0 21 -69 163 -94 194 -7 8 -24 35 -38 60 -39 68 -116 163 -144 178
-14 7 -33 20 -43 29 -25 21 -119 52 -158 53 -17 0 -33 5 -35 11 -2 5 -27 11
-56 13 -28 1 -55 6 -59 9 -3 4 -16 7 -27 7 -13 0 -31 14 -45 36 -14 19 -36 41
-50 49 -18 9 -34 33 -51 77 -13 34 -29 72 -36 83 -37 62 -37 327 1 469 18 70
23 116 31 299 l7 137 -90 0 -90 0 -8 -187z m5019 -558 c-6 -35 -34 -99 -40
-92 -2 2 0 55 6 118 5 63 10 121 11 129 1 8 7 -16 15 -55 7 -38 11 -83 8 -100z
m-5004 111 c0 -2 -7 -6 -15 -10 -8 -3 -15 -1 -15 4 0 6 7 10 15 10 8 0 15 -2
15 -4z m30 -60 c0 -8 -4 -18 -10 -21 -5 -3 -10 3 -10 14 0 12 5 21 10 21 6 0
10 -6 10 -14z m-485 -530 c0 -12 55 -102 69 -111 10 -7 15 -18 12 -24 -8 -12
24 -127 54 -197 l19 -44 -34 0 c-31 0 -35 3 -45 39 -6 22 -19 59 -30 83 -11
24 -20 58 -20 76 0 17 -4 32 -10 32 -5 0 -10 5 -10 12 0 6 -8 21 -18 32 -26
29 -46 82 -38 102 4 11 13 13 28 8 13 -3 23 -7 23 -8z m-153 -82 c10 -40 41
-104 51 -104 4 0 7 -8 7 -19 0 -28 70 -161 85 -161 7 0 15 -9 18 -21 4 -16 -1
-24 -28 -35 -42 -17 -45 -17 -45 -1 0 7 -8 29 -19 50 -10 20 -22 54 -26 74 -3
21 -13 48 -21 60 -24 39 -58 196 -41 190 6 -2 14 -17 19 -33z m-58 -94 c7 -19
17 -34 24 -32 7 1 12 -6 12 -17 0 -10 18 -62 40 -115 22 -53 40 -100 40 -106
0 -5 -15 -10 -34 -10 -33 0 -34 2 -60 74 -14 41 -26 83 -26 95 0 11 -9 25 -21
32 -15 8 -18 14 -10 22 14 14 14 47 1 47 -11 0 -14 33 -3 44 13 12 26 0 37
-34z m-53 -87 c7 -21 18 -42 24 -48 7 -5 16 -30 19 -54 4 -24 13 -56 22 -72
13 -27 13 -31 -8 -59 l-22 -30 -12 37 c-22 64 -56 233 -50 248 8 23 13 18 27
-22z m645 -35 c-27 -171 -33 -197 -64 -245 -18 -27 -41 -85 -52 -129 -11 -43
-29 -90 -40 -104 -12 -14 -30 -40 -41 -57 -13 -20 -33 -36 -55 -42 -19 -5 -56
-26 -83 -45 -55 -41 -69 -43 -97 -18 -10 9 -36 28 -56 42 -43 29 -72 97 -83
200 -17 150 -1 192 78 204 22 4 68 20 101 35 103 49 132 56 161 43 14 -6 31
-23 37 -37 10 -23 8 -28 -23 -55 -19 -16 -40 -29 -47 -30 -7 0 -35 -23 -63
-52 -59 -61 -88 -137 -73 -190 16 -56 39 -42 41 25 3 95 44 150 152 205 24 13
62 39 85 58 39 33 43 40 55 112 15 84 33 122 58 122 13 0 15 -7 9 -42z m4911
-15 c-3 -27 -12 -52 -22 -59 -29 -21 -166 -71 -245 -89 -41 -10 -80 -20 -87
-22 -25 -10 -44 53 -37 122 4 36 7 65 8 65 1 0 19 -9 41 -20 30 -15 59 -20
121 -20 72 0 88 3 145 34 35 18 68 34 73 35 5 0 6 -20 3 -46z m-437 -123 c0
-58 27 -82 83 -74 92 12 192 37 258 64 38 16 76 27 83 24 7 -3 21 3 31 12 17
17 19 17 41 -10 31 -35 30 -50 -8 -132 -31 -68 -40 -96 -93 -279 -24 -83 -40
-129 -111 -315 -26 -68 -53 -158 -84 -275 -16 -62 -16 -73 -3 -93 14 -24 14
-32 -27 -342 -12 -91 -46 -233 -66 -277 -8 -17 -14 -36 -14 -41 0 -26 -65
-151 -132 -253 -41 -63 -87 -136 -102 -164 -14 -27 -55 -79 -89 -115 -55 -58
-62 -62 -65 -42 -2 12 -7 22 -11 22 -16 0 -19 -13 -10 -38 9 -22 5 -30 -32
-68 l-41 -42 -50 26 c-28 14 -45 28 -39 30 6 2 11 12 11 22 0 13 -5 17 -21 13
-28 -8 -34 -27 -15 -56 15 -22 15 -25 1 -37 -11 -9 -14 -22 -9 -46 7 -37 -9
-66 -31 -58 -8 3 -12 18 -11 37 1 18 -1 43 -5 57 l-7 25 -1 -27 c-1 -15 -5
-29 -10 -32 -5 -4 -3 -25 4 -51 13 -41 13 -44 -6 -50 -11 -4 -23 -4 -26 -1 -4
3 -2 6 4 6 6 0 13 9 16 20 3 13 0 20 -10 20 -9 0 -12 6 -9 18 8 24 8 71 0 110
-5 25 -11 32 -28 31 -15 -1 -17 -2 -4 -6 11 -3 16 -14 16 -34 -1 -36 -15 -38
-24 -3 -5 19 -9 23 -18 13 -8 -8 -8 -13 2 -16 6 -3 12 -16 12 -29 0 -13 5 -24
10 -24 6 0 10 -9 10 -20 0 -27 -36 -27 -43 1 -3 12 -11 19 -18 17 -13 -4 -17
-87 -5 -107 4 -6 3 -11 -3 -11 -5 0 -11 -6 -14 -12 -2 -7 -2 -3 -1 9 6 34 -12
36 -26 2 -11 -27 -10 -33 9 -59 25 -34 27 -52 6 -44 -9 4 -15 1 -15 -8 0 -15
-39 -43 -47 -34 -4 3 -12 -2 -20 -12 -13 -16 -14 -15 -9 8 3 14 6 31 6 39 0
11 4 11 18 -2 10 -10 21 -17 24 -17 10 0 -5 106 -18 128 -16 25 -34 29 -34 7
0 -8 7 -15 15 -15 22 0 19 -27 -4 -40 -30 -16 -52 -12 -58 10 -3 11 -9 17 -14
14 -12 -7 -11 -44 1 -44 6 0 10 -10 11 -22 0 -20 1 -21 8 -5 6 17 8 16 19 -8
17 -36 15 -50 -3 -35 -19 16 -34 5 -17 -12 19 -19 14 -45 -14 -63 -30 -19 -35
-17 -27 13 3 13 13 22 25 22 18 0 18 1 1 25 -10 13 -26 27 -35 30 -10 4 -17 9
-15 13 1 4 -2 8 -8 10 -16 5 -19 -30 -3 -39 10 -8 9 -12 -6 -24 -19 -15 -19
-15 2 -15 26 0 27 -15 7 -64 -16 -37 -45 -49 -45 -19 0 15 -2 14 -14 -2 -8
-11 -12 -23 -10 -27 3 -5 1 -8 -5 -8 -14 0 -19 21 -13 58 5 34 -2 40 -22 19
-17 -16 -8 -78 13 -95 14 -11 14 -12 -4 -10 -11 2 -24 13 -30 26 -13 29 -29
28 -23 -2 4 -19 1 -22 -14 -18 -10 2 -18 -1 -18 -7 0 -7 4 -9 10 -6 11 7 55
-14 46 -22 -3 -3 -12 0 -21 7 -13 11 -15 9 -15 -13 0 -13 -7 -30 -15 -37 -22
-18 -18 -30 10 -30 21 0 23 -3 16 -22 -5 -14 -15 -22 -26 -20 -12 2 -15 -2
-11 -16 4 -11 0 -24 -9 -32 -8 -7 -15 -16 -15 -20 0 -5 -12 -27 -27 -50 -27
-41 -28 -42 -31 -16 -5 41 -45 29 -48 -14 -4 -53 -4 -53 -19 -40 -24 20 -38 1
-19 -27 16 -25 16 -26 -1 -19 -18 7 -39 -10 -61 -50 -6 -10 -20 -20 -31 -22
-15 -2 -19 -9 -16 -23 5 -19 28 -26 35 -10 2 4 13 12 26 15 16 5 22 3 22 -8 0
-8 -9 -18 -20 -21 -11 -3 -20 -13 -20 -22 0 -13 -3 -13 -16 -3 -13 11 -16 10
-21 -8 -4 -17 -10 -20 -33 -15 -20 4 -34 -1 -49 -16 -18 -18 -20 -27 -12 -61
11 -49 -5 -65 -20 -20 -11 30 -12 30 -25 11 -16 -23 -9 -51 15 -52 14 -1 14
-2 -1 -6 -13 -3 -18 -15 -19 -46 0 -23 -3 -35 -6 -27 -3 8 -11 18 -17 22 -8 5
-7 8 2 8 6 0 12 7 12 16 0 11 -6 15 -20 11 -12 -3 -29 4 -45 19 -34 31 -49 31
-41 -1 5 -21 1 -29 -24 -43 -16 -9 -30 -21 -30 -25 0 -4 -21 -29 -46 -55 -26
-26 -63 -66 -82 -90 -25 -31 -40 -41 -53 -37 -11 4 -19 2 -19 -3 0 -5 -9 -19
-20 -32 -11 -13 -20 -18 -20 -12 0 7 -7 12 -16 12 -9 0 -14 -6 -11 -13 5 -14
-31 -43 -41 -33 -3 3 -1 6 5 6 26 0 43 86 21 108 -14 14 -1 16 65 13 l38 -2
-33 45 c-39 53 -67 60 -66 16 1 -16 5 -27 10 -24 4 3 8 -1 8 -8 0 -18 -60 -23
-61 -6 -1 7 -2 20 -3 28 0 8 -9 14 -18 12 -11 -2 -82 64 -195 179 -247 251
-390 389 -404 389 -5 0 -67 45 -151 110 -14 11 -33 20 -42 20 -9 0 -16 5 -16
11 0 5 -4 8 -9 4 -6 -3 -14 3 -20 12 -6 10 -11 14 -11 10 0 -5 -6 -5 -12 0 -9
5 -3 9 16 13 16 3 31 10 33 17 3 8 -21 12 -79 13 -46 2 -94 3 -108 4 -14 0
-44 -3 -67 -7 -35 -6 -41 -5 -37 8 3 8 21 24 40 36 47 29 64 66 63 136 -1 61
13 102 56 162 40 55 30 65 -24 24 -61 -47 -91 -108 -91 -185 0 -54 -1 -57 -47
-94 -27 -21 -52 -45 -57 -54 -5 -8 -24 -30 -43 -48 -18 -19 -33 -40 -33 -46 0
-17 -30 -76 -38 -76 -18 1 -32 20 -64 85 -68 137 -108 222 -108 229 0 3 -10
27 -21 51 -12 25 -19 48 -16 51 3 3 36 -17 74 -45 73 -53 200 -108 215 -93 9
9 -34 42 -116 87 -27 14 -69 45 -93 68 -24 23 -59 51 -77 62 -44 27 -63 48
-59 62 8 22 -27 122 -45 132 -9 6 -12 11 -4 11 20 0 14 29 -11 54 -30 30 -46
69 -58 142 -14 80 -23 254 -14 254 4 0 28 -17 54 -39 72 -60 121 -79 121 -47
0 10 30 -5 83 -41 45 -30 84 -58 87 -62 7 -10 80 -54 110 -66 28 -12 68 -35
143 -83 44 -29 65 -35 144 -43 51 -5 103 -9 116 -7 12 1 45 -1 73 -6 52 -8 96
-39 132 -94 13 -20 13 -24 -2 -41 -34 -37 -9 -41 84 -11 34 11 80 20 101 20
38 0 39 -1 39 -36 0 -67 26 -14 49 100 25 125 45 173 37 87 -3 -30 -10 -59
-16 -65 -5 -5 -10 -18 -10 -28 0 -9 -5 -39 -10 -65 -9 -41 -23 -61 -93 -133
-48 -50 -94 -109 -111 -143 -29 -59 -44 -73 -131 -131 -55 -36 -70 -70 -35
-81 11 -4 26 -2 33 3 7 6 40 24 73 41 61 31 63 31 175 26 121 -6 229 1 229 16
0 4 -66 8 -147 8 -80 0 -150 4 -156 10 -5 5 -3 21 7 39 26 51 117 157 134 158
21 0 70 13 97 24 11 4 27 11 35 14 8 4 29 15 45 26 17 11 40 25 53 32 25 13
105 129 129 187 12 29 43 77 73 114 15 18 85 -29 162 -107 94 -96 83 -93 266
-80 51 4 92 3 92 -2 0 -5 -25 -38 -55 -73 -54 -64 -73 -97 -61 -108 13 -13 49
16 106 87 131 164 144 177 200 203 30 15 88 31 128 38 43 6 76 17 79 24 2 8
30 33 61 57 32 23 124 107 205 187 116 114 159 164 199 231 69 114 137 200
159 200 10 0 22 6 26 14 4 8 24 32 43 53 32 34 175 220 194 251 4 7 2 12 -6
12 -8 0 -21 -12 -30 -27 -9 -16 -38 -50 -63 -78 -26 -27 -60 -70 -76 -94 -33
-51 -38 -48 -10 7 10 20 16 43 14 50 -3 7 13 67 36 135 35 108 78 314 96 462
4 28 19 95 34 150 33 117 38 153 55 421 14 218 18 231 86 291 35 31 40 29 40
-17z m-3445 -410 c3 -5 -1 -10 -9 -10 -9 0 -16 5 -16 10 0 6 4 10 9 10 6 0 13
-4 16 -10z m-1178 -77 c13 -19 14 -28 5 -31 -26 -8 -11 -32 26 -38 57 -9 113
-52 128 -99 8 -22 18 -47 23 -56 5 -9 11 -45 12 -80 1 -35 6 -80 10 -99 4 -19
15 -80 23 -135 24 -161 114 -357 171 -371 14 -3 34 -22 47 -43 12 -20 65 -79
118 -131 54 -52 109 -112 124 -132 31 -41 48 -130 36 -184 -4 -19 -3 -37 3
-43 5 -5 11 -27 13 -48 2 -21 8 -65 14 -98 5 -33 19 -116 31 -185 11 -69 23
-128 25 -132 9 -14 13 -48 6 -48 -4 0 -36 19 -72 43 -148 98 -238 165 -301
225 -43 40 -120 90 -206 132 -35 17 -75 46 -91 65 -39 48 -104 180 -113 229
-4 23 -19 73 -33 111 -28 74 -59 197 -102 405 -15 69 -30 132 -34 140 -5 8
-13 42 -19 74 -6 33 -17 66 -25 75 -8 9 -17 36 -21 61 -4 25 -14 57 -21 72 -8
15 -14 39 -14 53 0 33 28 96 50 111 55 41 65 53 53 65 -9 9 -17 8 -37 -5 -36
-23 -49 -21 -35 7 30 57 101 103 181 116 4 0 15 -11 25 -26z m2661 -672 c-16
-46 -66 -130 -77 -131 -8 0 -23 -7 -33 -17 -22 -20 -22 -12 -2 47 9 27 30 58
52 77 36 31 67 43 60 24z m858 -38 c-11 -11 -17 4 -9 23 7 18 8 18 11 1 2 -10
1 -21 -2 -24z m-812 -22 c-14 -29 -44 -49 -44 -31 0 6 4 10 8 10 5 0 15 11 22
25 19 35 32 31 14 -4z m746 -101 c0 -5 -4 -10 -10 -10 -5 0 -10 5 -10 10 0 6
5 10 10 10 6 0 10 -4 10 -10z m-850 -39 c0 -20 -36 -36 -46 -20 -7 13 14 39
32 39 8 0 14 -8 14 -19z m-164 -97 c-25 -51 -39 -108 -37 -146 2 -36 -12 -52
-22 -25 -3 6 -6 -1 -6 -17 -1 -28 -2 -29 -16 -10 -8 10 -14 33 -14 49 0 35 24
74 32 53 3 -7 6 2 6 20 1 18 11 47 24 65 37 54 58 61 33 11z m652 -123 c11 -7
11 -14 0 -42 -10 -22 -12 -46 -7 -69 4 -19 5 -45 3 -57 -4 -13 1 -28 13 -40
11 -11 22 -27 26 -36 4 -10 15 -20 24 -23 10 -3 25 -9 34 -14 10 -5 21 -4 27
2 7 7 16 7 28 0 19 -10 75 8 105 34 14 12 17 11 27 -11 7 -14 12 -30 12 -36 0
-5 18 -29 40 -51 40 -43 48 -58 30 -58 -6 0 -14 -9 -18 -19 -4 -10 -51 -64
-104 -120 -54 -56 -98 -108 -98 -117 0 -8 -4 -13 -9 -9 -6 3 -22 -10 -38 -30
-35 -43 -47 -45 -39 -4 8 43 -15 33 -28 -12 l-10 -34 -4 33 c-2 17 -7 32 -12
32 -5 0 -7 -6 -4 -13 2 -7 -2 -27 -11 -43 -15 -29 -15 -29 -15 -4 l-1 25 -14
-25 c-8 -14 -10 -29 -5 -35 10 -12 -5 -43 -15 -33 -4 4 -17 -5 -30 -20 -35
-41 -90 -37 -138 9 -32 32 -52 69 -28 55 16 -10 41 19 46 54 l6 35 -16 -25
-16 -25 4 28 c2 15 0 30 -6 34 -19 12 -56 9 -62 -5 -3 -8 -12 -11 -24 -7 -11
3 -22 1 -26 -5 -3 -5 -10 -10 -16 -10 -14 0 -11 21 6 40 21 23 9 53 -15 40
-27 -14 -30 -13 -30 13 0 23 -17 47 -32 47 -4 0 -8 -7 -8 -15 0 -8 -4 -15 -10
-15 -14 0 -13 8 8 66 11 28 22 75 26 105 4 29 14 68 22 86 9 17 16 37 18 45 1
7 4 18 8 23 8 13 22 85 20 108 -1 22 6 21 43 -3 21 -14 39 -18 60 -14 24 5 28
4 18 -7 -17 -17 -16 -49 3 -74 14 -19 15 -18 12 14 -3 32 2 38 52 72 87 60
130 106 130 140 0 29 13 36 38 20z m698 -81 c44 -87 84 -204 84 -246 0 -17 -9
-38 -22 -51 -13 -13 -61 -61 -107 -107 -82 -83 -101 -94 -101 -57 0 10 -11 30
-25 45 -14 15 -25 29 -25 32 0 8 -190 194 -199 194 -18 0 8 75 34 97 14 13 33
39 41 59 8 20 24 38 35 41 10 3 19 9 19 13 0 5 8 6 18 4 9 -2 37 2 62 10 25 8
72 14 104 13 l59 -2 23 -45z m-1386 -51 c0 -5 -4 -9 -10 -9 -5 0 -10 7 -10 16
0 8 5 12 10 9 6 -3 10 -10 10 -16z m967 -81 c-3 -8 -6 -5 -6 6 -1 11 2 17 5
13 3 -3 4 -12 1 -19z m-687 -12 c0 -18 -22 -56 -29 -52 -10 7 9 56 22 56 4 0
7 -2 7 -4z m836 -232 c-9 -23 2 -54 19 -54 8 0 11 -7 8 -19 -3 -10 0 -22 6
-25 6 -4 11 -27 11 -51 0 -24 4 -45 10 -47 5 -1 1 -13 -8 -25 -13 -18 -33 -25
-92 -32 -42 -6 -83 -13 -93 -17 -10 -3 -17 -1 -17 5 0 6 -8 11 -19 11 -13 0
-20 9 -23 30 -3 20 0 30 8 30 7 0 14 -10 16 -22 2 -13 10 -24 19 -26 14 -3 15
2 6 37 l-11 40 62 65 c34 35 62 69 62 74 0 11 27 42 37 42 3 0 2 -7 -1 -16z
m89 -104 c11 -5 14 -9 8 -9 -8 -1 -13 -15 -14 -33 l-1 -33 -7 31 c-4 17 -11
36 -15 42 -8 14 1 14 29 2z m-1246 -88 c7 -13 4 -37 -10 -83 -22 -71 -19 -119
12 -181 11 -21 19 -41 19 -45 0 -7 -68 -43 -81 -43 -7 0 -2 217 6 247 3 15 15
39 26 54 12 17 16 30 9 34 -6 3 -13 -1 -16 -9 -8 -22 -24 -20 -24 2 0 39 42
56 59 24z m468 -44 c-3 -8 -6 -5 -6 6 -1 11 2 17 5 13 3 -3 4 -12 1 -19z
m-307 -145 c-32 -65 -69 -127 -82 -139 -50 -45 -128 -79 -128 -56 0 9 24 22
76 42 28 10 74 58 74 76 0 25 100 194 115 194 1 0 -24 -53 -55 -117z m590 77
c0 -5 -4 -10 -10 -10 -5 0 -10 5 -10 10 0 6 5 10 10 10 6 0 10 -4 10 -10z m2
-57 c9 3 32 2 52 -3 31 -7 39 -5 48 10 6 10 18 16 25 13 11 -4 7 -13 -13 -34
-28 -29 -58 -37 -69 -19 -4 6 -21 8 -38 6 -91 -14 -117 -15 -117 -7 0 5 11 12
25 15 14 4 30 15 37 25 11 18 13 18 23 4 7 -9 19 -14 27 -10z m1053 -40 c-3
-10 -9 -30 -12 -45 -9 -44 -18 -32 -15 17 3 32 8 45 19 45 10 0 13 -6 8 -17z
m-1875 -37 c0 -3 -4 -8 -10 -11 -5 -3 -10 -1 -10 4 0 6 5 11 10 11 6 0 10 -2
10 -4z m-11 -64 c-5 -2 -9 -15 -9 -28 0 -13 -2 -24 -4 -24 -2 0 -13 -3 -23 -7
-15 -5 -16 -4 -7 8 6 8 15 31 18 53 7 35 8 37 21 20 7 -11 9 -20 4 -22z m1721
-32 c0 -11 -2 -20 -5 -20 -2 0 -9 9 -15 20 -9 16 -8 20 5 20 8 0 15 -9 15 -20z
m-46 -46 c3 -8 2 -12 -4 -9 -6 3 -10 10 -10 16 0 14 7 11 14 -7z m-4531 -121
c-7 -2 -19 -2 -25 0 -7 3 -2 5 12 5 14 0 19 -2 13 -5z m2645 -52 c-12 -16 -31
-43 -41 -61 -23 -43 -34 -32 -12 12 26 51 68 103 73 90 2 -7 -7 -25 -20 -41z
m-128 -136 c-46 -18 -61 -18 -30 0 14 8 34 14 45 14 13 0 8 -5 -15 -14z m-357
-97 c-13 -6 -23 -14 -23 -18 0 -13 70 -70 84 -70 8 0 20 -8 27 -17 9 -11 10
-14 2 -9 -7 4 -20 3 -29 -2 -13 -7 3 -19 78 -55 98 -47 215 -127 224 -152 4
-8 11 -15 18 -15 6 0 34 -22 61 -50 28 -27 55 -50 61 -50 6 0 24 -15 40 -32
16 -18 54 -56 84 -84 90 -84 170 -171 170 -183 0 -6 6 -11 13 -11 8 0 24 -11
37 -25 19 -21 21 -25 7 -25 -10 0 -17 -8 -17 -20 0 -25 -25 -37 -44 -21 -22
18 -68 -6 -60 -32 4 -12 2 -17 -4 -13 -5 3 -15 0 -21 -8 -6 -7 -25 -16 -42
-20 -28 -5 -31 -9 -26 -33 l5 -28 -20 28 c-20 27 -21 27 -40 10 -20 -17 -21
-17 -37 7 -22 34 -163 180 -174 180 -5 0 -21 12 -37 28 -33 32 -38 36 -112 85
-32 21 -58 45 -58 53 0 7 -4 14 -9 14 -6 0 -9 39 -2 47 3 4 120 -57 126 -66 3
-6 13 -11 22 -11 30 0 278 -147 325 -192 29 -29 78 -20 78 14 0 23 -80 105
-142 145 -47 30 -78 58 -78 70 0 4 -18 26 -40 47 -26 26 -38 46 -35 57 6 18
-16 29 -93 49 -23 6 -59 22 -79 35 -20 14 -40 25 -45 25 -5 0 -28 9 -51 19
-23 11 -69 24 -102 30 -33 6 -72 20 -87 31 -15 11 -32 20 -38 20 -5 0 -10 6
-10 14 0 15 -76 86 -92 86 -4 0 -16 8 -26 18 -14 14 -15 21 -7 29 7 6 20 21
31 34 26 33 91 64 139 67 21 2 41 5 44 7 2 3 9 5 15 4 6 0 1 -5 -11 -11z
m-1158 -58 c-3 -5 -10 -10 -16 -10 -5 0 -9 5 -9 10 0 6 7 10 16 10 8 0 12 -4
9 -10z m620 -56 c24 -16 42 -65 30 -84 -9 -15 -45 17 -45 40 0 20 -24 43 -33
33 -4 -3 -7 -2 -7 4 0 26 21 29 55 7z m271 -64 c15 0 114 -90 114 -105 0 -8
-18 -14 -47 -17 -62 -7 -76 -11 -85 -23 -4 -5 -8 3 -8 18 0 16 4 26 9 23 12
-8 6 34 -13 78 -21 50 -20 63 2 43 10 -10 23 -17 28 -17z m-4646 -111 c12 -39
19 -76 16 -82 -2 -7 -5 -4 -5 6 -1 9 -5 17 -10 17 -11 0 6 -69 22 -89 9 -10 5
-19 -18 -38 -17 -13 -42 -26 -58 -30 -22 -5 -25 -8 -15 -20 14 -17 51 -10 86
17 28 23 42 18 42 -13 0 -14 -15 -33 -41 -52 -29 -21 -36 -31 -25 -33 23 -5
86 18 86 31 0 6 11 0 25 -13 14 -13 25 -26 25 -29 0 -3 -18 -15 -40 -25 -22
-11 -40 -25 -40 -33 0 -20 38 -16 72 8 26 19 32 20 44 7 17 -17 9 -48 -12 -48
-8 0 -14 -7 -14 -15 0 -19 4 -19 41 0 27 15 31 14 58 -6 l29 -21 -19 -42 c-10
-22 -19 -49 -19 -58 0 -9 26 -35 59 -58 79 -56 121 -115 121 -172 -1 -23 -7
-54 -15 -68 -7 -14 -11 -37 -8 -54 6 -26 5 -28 -15 -17 -17 9 -28 8 -50 -3
-27 -14 -30 -13 -55 14 -15 15 -52 45 -84 66 -31 21 -52 39 -46 41 7 3 21 0
32 -6 11 -6 29 -11 40 -11 30 0 91 32 91 47 0 15 -16 17 -25 3 -11 -19 -63
-10 -93 15 -34 29 -47 32 -38 10 4 -12 0 -14 -19 -9 -25 6 -35 -9 -15 -21 6
-3 10 -10 10 -15 0 -15 -32 1 -80 40 -25 20 -52 39 -61 42 -8 3 -34 46 -58 94
-59 123 -59 122 -76 184 -34 128 -41 146 -56 157 -21 16 -25 105 -5 141 7 15
19 45 25 67 14 55 103 145 142 145 26 0 30 -5 49 -71z m4591 28 c-6 -6 -11
-22 -11 -35 0 -13 -4 -21 -9 -18 -8 5 -7 27 5 64 2 7 9 10 15 7 8 -5 8 -10 0
-18z m2137 11 c-6 -18 -28 -21 -28 -4 0 9 7 16 16 16 9 0 14 -5 12 -12z m-58
-74 c0 -17 -22 -14 -28 4 -2 7 3 12 12 12 9 0 16 -7 16 -16z m-2307 -43 c4
-16 21 -46 38 -66 29 -33 31 -39 22 -69 -8 -25 -7 -39 4 -59 13 -26 13 -26
-24 -25 -46 1 -82 25 -83 54 0 17 5 20 29 16 38 -5 47 12 23 43 -12 16 -18 33
-14 47 3 12 -1 25 -10 32 -17 13 -29 42 -21 50 15 14 31 4 36 -23z m473 -66
c63 -19 69 -24 78 -57 l6 -27 -44 19 c-25 10 -62 22 -83 27 -21 4 -41 8 -45 9
-5 1 -28 2 -53 3 -38 1 -45 4 -45 21 0 18 7 20 68 20 38 0 91 -7 118 -15z
m379 -21 c23 -9 115 -74 115 -80 0 -2 -18 7 -40 21 -22 14 -42 25 -46 25 -3 0
-12 7 -21 16 -9 8 -21 13 -29 10 -7 -3 -17 1 -23 8 -12 14 10 15 44 0z m1365
-4 c0 -5 -5 -10 -11 -10 -5 0 -7 5 -4 10 3 6 8 10 11 10 2 0 4 -4 4 -10z
m-2050 -10 c0 -5 -2 -10 -4 -10 -3 0 -8 5 -11 10 -3 6 -1 10 4 10 6 0 11 -4
11 -10z m1985 -50 c-6 -9 -12 -6 -21 11 -20 36 -17 46 7 22 13 -12 18 -26 14
-33z m-1505 4 c0 -6 10 -24 22 -40 l23 -29 -27 18 c-15 9 -34 17 -41 17 -8 0
-17 8 -20 18 -2 9 -8 25 -12 34 -6 15 -3 16 24 5 17 -6 31 -17 31 -23z m-519
-4 c21 -17 22 -21 9 -30 -13 -8 -46 -5 -58 5 -7 6 9 45 18 45 4 0 18 -9 31
-20z m-4341 -47 c0 -18 -10 -16 -26 5 -22 28 -18 48 6 27 11 -10 20 -24 20
-32z m2408 25 c7 -7 12 -19 12 -27 0 -11 -4 -10 -20 4 -21 19 -26 35 -12 35 4
0 13 -5 20 -12z m2807 -8 c3 -6 -1 -7 -9 -4 -18 7 -21 14 -7 14 6 0 13 -4 16
-10z m-685 -48 c0 -9 -87 -9 -96 1 -4 4 16 7 44 7 29 0 52 -3 52 -8z m-4482
-32 c3 -21 2 -22 -12 -11 -19 16 -21 44 -3 39 6 -3 14 -15 15 -28z m4357 -15
c0 -5 -10 -11 -22 -13 -16 -2 -23 2 -23 13 0 11 7 15 23 13 12 -2 22 -7 22
-13z m-3785 -24 c0 -12 -61 -63 -67 -57 -10 10 10 48 30 56 29 12 37 12 37 1z
m4197 -33 c29 -18 53 -36 53 -40 0 -8 -52 12 -60 23 -3 4 -21 16 -40 28 -19
11 -28 21 -20 21 8 0 39 -15 67 -32z m1413 1 c13 -9 13 -10 -2 -6 -9 3 -19 1
-22 -6 -2 -7 -5 -4 -5 6 -1 20 7 21 29 6z m-5726 -41 c-5 -51 11 -143 37 -216
10 -29 19 -55 19 -57 0 -6 -145 -75 -158 -75 -6 0 -12 -5 -14 -10 -4 -12 -118
-21 -118 -10 0 4 10 10 21 13 15 4 20 11 15 22 -3 9 -6 26 -6 37 0 13 -28 48
-69 89 -97 94 -102 104 -88 157 12 44 26 52 47 27 7 -8 28 -15 46 -15 25 0 32
-4 28 -15 -10 -26 21 -27 87 -2 35 14 73 28 84 32 16 5 17 8 5 15 -12 8 -11
10 6 10 11 0 29 9 39 20 10 11 19 20 21 20 1 0 0 -19 -2 -42z m5146 -127 c0
-5 11 -22 24 -38 24 -29 24 -29 3 -28 -36 2 -61 16 -46 26 10 6 10 11 1 22 -7
7 -9 17 -5 20 9 10 23 8 23 -2z m75 -50 c-5 -12 -2 -11 14 3 12 11 21 14 26 7
3 -6 -1 -11 -10 -11 -11 0 -15 -5 -11 -15 3 -8 2 -15 -2 -15 -19 1 -34 21 -42
56 l-9 39 20 -24 c11 -13 17 -31 14 -40z m-122 43 c8 -8 -3 -34 -14 -34 -5 0
-9 9 -9 20 0 19 11 26 23 14z m-74 -55 c-12 -22 -29 -16 -29 10 0 25 11 33 26
20 10 -8 11 -16 3 -30z m93 -31 c-17 -8 -26 -8 -34 0 -9 9 -4 12 23 11 32 0
33 -1 11 -11z m208 -42 c0 -3 -4 -8 -10 -11 -5 -3 -10 -1 -10 4 0 6 5 11 10
11 6 0 10 -2 10 -4z m-4540 -151 c-13 -14 -28 -25 -34 -25 -11 1 40 50 51 50
4 0 -4 -11 -17 -25z m3895 -57 c14 -6 25 -15 25 -20 0 -4 6 -8 13 -8 43 0 77
-199 42 -246 -15 -20 -21 -59 -7 -50 20 12 9 -43 -13 -64 -13 -13 -23 -26 -20
-30 2 -3 -10 -4 -26 -2 -26 4 -30 8 -24 26 11 35 27 226 21 249 -3 12 -5 24
-5 27 0 3 -9 29 -20 58 -30 76 -29 80 14 60z m-4220 -128 c16 -7 14 -9 -13 -7
-19 1 -36 5 -38 9 -7 10 26 9 51 -2z m3795 -520 c0 -5 -4 -10 -9 -10 -6 0 -13
5 -16 10 -3 6 1 10 9 10 9 0 16 -4 16 -10z"/>
<path d="M8900 3296 c0 -9 5 -16 10 -16 6 0 10 4 10 9 0 6 -4 13 -10 16 -5 3
-10 -1 -10 -9z"/>
<path d="M9100 3300 c0 -6 -4 -9 -9 -6 -5 4 -7 -3 -4 -14 8 -31 20 -33 26 -5
2 14 0 28 -4 31 -5 3 -9 0 -9 -6z"/>
<path d="M9035 3251 c-10 -17 15 -45 29 -31 7 7 5 15 -6 26 -11 11 -18 13 -23
5z"/>
<path d="M8896 3216 c-6 -24 -3 -33 15 -47 15 -11 20 -23 16 -38 -8 -31 29
-50 48 -24 12 16 11 18 -11 21 -19 3 -24 8 -19 22 3 10 1 21 -4 24 -6 4 -8 13
-4 21 3 9 -1 15 -10 15 -9 0 -17 8 -19 18 -3 12 -6 8 -12 -12z"/>
<path d="M8980 3220 c0 -5 5 -10 10 -10 6 0 10 5 10 10 0 6 -4 10 -10 10 -5 0
-10 -4 -10 -10z"/>
<path d="M8735 3060 c3 -5 8 -10 11 -10 2 0 4 5 4 10 0 6 -5 10 -11 10 -5 0
-7 -4 -4 -10z"/>
<path d="M8565 2958 c10 -31 25 -47 25 -26 0 24 -11 48 -22 48 -5 0 -6 -10 -3
-22z"/>
<path d="M7739 2941 c-13 -10 -42 -30 -64 -45 -96 -64 -274 -273 -263 -307 5
-15 10 -10 108 114 35 43 106 114 161 158 90 73 114 99 90 99 -4 0 -19 -8 -32
-19z"/>
<path d="M8500 2924 c0 -24 18 -44 40 -44 9 0 11 3 4 8 -5 4 -18 18 -27 32
-16 22 -17 23 -17 4z"/>
<path d="M6655 2840 c-44 -9 -96 -23 -115 -30 -113 -41 -141 -53 -146 -62 -12
-19 5 -19 77 1 227 60 279 79 279 98 0 15 6 16 -95 -7z"/>
<path d="M7530 2820 c-19 -16 -42 -37 -50 -46 -8 -10 -32 -36 -53 -59 -57 -65
-167 -217 -167 -232 0 -23 17 -6 91 93 39 53 106 133 150 179 43 45 79 85 79
89 0 12 -16 5 -50 -24z"/>
<path d="M8375 2840 c3 -5 8 -10 11 -10 2 0 4 5 4 10 0 6 -5 10 -11 10 -5 0
-7 -4 -4 -10z"/>
<path d="M6971 2714 c0 -11 3 -14 6 -6 3 7 2 16 -1 19 -3 4 -6 -2 -5 -13z"/>
<path d="M8250 2716 c0 -8 7 -17 16 -20 28 -11 34 -6 22 14 -15 23 -38 27 -38
6z"/>
<path d="M8175 2700 c3 -5 14 -10 23 -10 15 0 15 2 2 10 -20 13 -33 13 -25 0z"/>
<path d="M8310 2676 c0 -29 11 -44 31 -39 24 7 24 15 1 36 -23 21 -32 21 -32
3z"/>
<path d="M8220 2670 c0 -5 7 -10 15 -10 8 0 15 5 15 10 0 6 -7 10 -15 10 -8 0
-15 -4 -15 -10z"/>
<path d="M8150 2660 c0 -5 6 -10 14 -10 8 0 16 -6 19 -12 2 -7 8 -9 13 -5 5 5
1 15 -10 23 -23 16 -36 18 -36 4z"/>
<path d="M6466 2482 c-2 -4 19 -20 47 -34 49 -26 63 -28 248 -36 175 -7 199
-10 231 -30 23 -14 55 -23 89 -24 35 -2 61 -9 73 -20 11 -10 26 -18 33 -18 8
0 24 -11 36 -24 26 -28 146 -96 170 -96 9 0 17 -7 17 -16 0 -9 19 -36 43 -59
62 -61 106 -114 123 -147 8 -16 22 -32 30 -35 7 -3 14 -13 14 -23 0 -10 7 -20
15 -23 36 -15 23 13 -76 160 -41 61 -170 170 -245 208 -44 22 -83 46 -87 53
-12 18 -104 57 -156 66 -24 4 -67 17 -95 30 -56 26 -140 37 -322 41 -84 2
-118 6 -135 19 -25 17 -45 21 -53 8z"/>
<path d="M8115 2350 c-11 -5 -16 -9 -11 -9 5 -1 3 -8 -4 -16 -21 -25 6 -17 36
10 27 25 18 32 -21 15z"/>
<path d="M7385 1780 c-3 -6 1 -13 10 -16 9 -4 14 -12 11 -20 -3 -7 2 -12 12
-12 9 0 24 -2 32 -6 19 -8 59 19 46 31 -5 4 -11 2 -13 -4 -8 -23 -53 -15 -65
12 -12 27 -23 31 -33 15z"/>
<path d="M7710 3681 c0 -38 -12 -45 -54 -31 -35 11 -66 5 -66 -14 0 -7 19 -17
43 -24 23 -7 47 -15 54 -18 6 -3 21 5 32 17 26 28 30 99 6 99 -10 0 -15 -10
-15 -29z"/>
<path d="M7510 3590 c-11 -11 -23 -20 -27 -20 -4 0 -20 -12 -35 -27 -19 -18
-28 -37 -28 -58 0 -40 16 -55 57 -55 40 0 75 -21 121 -72 34 -38 107 -68 122
-51 15 16 28 91 18 105 -7 9 -11 10 -14 1 -3 -7 -19 2 -41 22 -47 43 -106 72
-166 80 l-48 7 33 29 c18 15 39 28 46 29 17 0 15 30 -3 30 -8 0 -24 -9 -35
-20z m-43 -126 c-12 -12 -25 7 -19 28 l5 22 10 -22 c6 -12 7 -25 4 -28z"/>
<path d="M7615 3565 c55 -44 77 -70 91 -102 8 -18 19 -33 24 -33 15 0 12 28
-4 37 -8 4 -16 19 -18 33 -2 14 -20 37 -46 57 -52 39 -94 46 -47 8z"/>
<path d="M7601 3183 c0 -7 -12 -29 -26 -49 -27 -40 -32 -58 -13 -52 21 7 50
66 45 90 -2 13 -5 18 -6 11z"/>
<path d="M7700 3180 c0 -7 -10 -28 -22 -48 -21 -34 -22 -35 -30 -12 -8 22 -9
23 -23 4 -8 -10 -15 -24 -15 -31 0 -6 -6 -13 -12 -16 -7 -2 -9 -8 -5 -13 4 -4
17 -3 28 4 19 12 19 11 9 -8 -18 -33 6 -23 39 17 30 36 50 97 37 110 -3 4 -6
0 -6 -7z"/>
<path d="M8332 3818 c-43 -43 25 -178 89 -178 59 0 81 53 48 117 -32 62 -104
94 -137 61z m90 -70 c14 -15 22 -28 17 -28 -5 0 -9 -9 -9 -20 0 -28 -28 -25
-42 5 -6 14 -15 25 -20 25 -4 0 -8 13 -8 30 0 24 3 28 18 23 9 -4 29 -19 44
-35z"/>
<path d="M8112 3304 c3 -19 34 -41 43 -32 9 9 -18 48 -33 48 -7 0 -12 -7 -10
-16z"/>
<path d="M1508 1493 c-16 -8 -28 -22 -28 -34 0 -22 18 -26 26 -4 9 22 61 19
92 -5 29 -23 44 -15 35 18 -8 32 -83 47 -125 25z"/>
<path d="M1824 6313 c-41 -44 -43 -65 -8 -92 33 -26 69 -27 86 -2 7 10 23 21
36 25 28 9 31 65 4 89 -33 30 -80 22 -118 -20z"/>
<path d="M7450 4594 c0 -11 7 -29 15 -40 13 -17 14 -16 5 15 -11 41 -20 51
-20 25z"/>
<path d="M7711 4051 c-23 -15 7 -25 70 -22 32 1 60 -2 64 -8 7 -13 55 -15 55
-2 0 17 -30 33 -55 29 -14 -3 -25 -1 -25 3 0 12 -91 11 -109 0z"/>
<path d="M7760 3970 c0 -5 17 -10 38 -9 30 0 33 2 17 9 -28 12 -55 12 -55 0z"/>
<path d="M1311 3616 c-12 -18 -21 -38 -21 -43 0 -5 -18 -29 -40 -54 -49 -53
-52 -92 -7 -97 16 -2 27 1 27 9 0 7 3 10 6 6 5 -5 41 29 69 65 17 23 45 88 45
106 0 10 -5 23 -12 30 -21 21 -46 13 -67 -22z"/>
<path d="M1122 3604 c-33 -23 -25 -55 20 -79 36 -19 37 -19 57 -1 23 21 28 65
9 84 -17 17 -59 15 -86 -4z"/>
<path d="M7062 3430 c0 -14 2 -19 5 -12 2 6 2 18 0 25 -3 6 -5 1 -5 -13z"/>
<path d="M1185 3320 c4 -6 11 -8 16 -5 14 9 11 15 -7 15 -8 0 -12 -5 -9 -10z"/>
<path d="M1403 3194 c-38 -29 -41 -44 -15 -67 52 -47 147 23 103 76 -19 24
-51 21 -88 -9z"/>
<path d="M1147 3113 c-2 -5 -4 -20 -5 -35 -1 -19 4 -29 18 -33 40 -13 53 19
23 55 -18 21 -29 25 -36 13z"/>
<path d="M11062 2298 c-7 -7 -12 -19 -12 -27 0 -12 3 -12 12 -3 7 7 21 12 31
12 16 0 17 3 7 15 -15 18 -22 19 -38 3z"/>
<path d="M11280 2289 c-36 -3 -73 -10 -84 -14 -10 -4 -29 -8 -42 -9 -13 -1
-25 -5 -27 -11 -3 -14 63 -19 76 -6 6 6 36 11 67 11 61 0 100 8 100 20 0 14
-23 16 -90 9z"/>
<path d="M11380 2290 c0 -5 5 -10 10 -10 6 0 10 5 10 10 0 6 -4 10 -10 10 -5
0 -10 -4 -10 -10z"/>
<path d="M11012 2220 c-12 -32 -11 -34 4 -19 9 9 14 25 12 35 -3 14 -7 10 -16
-16z"/>
<path d="M10977 2153 c-3 -5 -8 -37 -11 -73 -7 -70 -37 -145 -67 -163 -23 -14
-24 -27 -3 -27 14 0 14 -3 4 -15 -7 -8 -21 -15 -31 -15 -12 0 -16 5 -13 15 4
9 0 15 -9 15 -8 0 -20 -7 -27 -15 -17 -21 -37 -19 -50 5 -6 11 -17 20 -24 20
-18 0 -131 56 -191 96 -28 18 -85 50 -127 72 -68 36 -77 39 -81 22 -3 -12 4
-22 22 -31 92 -47 193 -114 200 -131 4 -11 23 -26 42 -33 71 -27 125 -45 153
-50 l29 -6 -6 -87 c-3 -53 -15 -118 -31 -167 -14 -44 -26 -94 -26 -112 0 -18
-11 -72 -25 -119 -30 -104 -31 -119 -5 -76 23 37 35 42 25 11 -5 -16 -4 -19 5
-14 8 5 10 20 7 41 -3 19 -1 48 5 66 5 18 11 42 14 53 2 11 13 63 24 115 11
52 25 116 31 142 5 26 16 60 24 75 8 15 15 40 15 56 0 30 3 32 31 17 15 -9 17
-15 9 -30 -5 -10 -10 -32 -10 -49 0 -16 -4 -32 -9 -35 -4 -3 -14 -40 -21 -83
-7 -43 -19 -92 -27 -110 -15 -37 -18 -92 -4 -77 5 5 12 25 15 46 3 20 15 61
27 92 20 56 21 56 62 56 73 0 222 22 232 35 6 6 35 14 65 17 81 9 197 64 177
84 -3 3 -34 -6 -69 -20 -36 -14 -72 -26 -80 -26 -9 0 -35 -7 -59 -16 -24 -9
-55 -17 -69 -18 -14 -2 -31 -4 -37 -4 -7 -1 -13 -9 -13 -17 0 -19 -14 -19 -29
-1 -12 14 -47 10 -120 -13 -19 -6 -36 -9 -37 -8 -4 3 18 68 28 82 3 6 9 33 13
60 3 28 13 68 22 90 8 22 21 82 29 135 8 52 17 103 20 113 5 16 -10 25 -19 10z"/>
<path d="M10197 2143 c-4 -3 -7 -15 -7 -26 0 -16 5 -19 30 -14 16 4 47 0 70
-8 39 -14 40 -14 40 10 0 24 -30 42 -49 30 -5 -3 -12 -1 -16 5 -7 11 -58 14
-68 3z"/>
<path d="M10140 2054 c-25 -19 -57 -34 -73 -34 -17 0 -30 -7 -34 -17 -4 -10
-26 -40 -49 -68 -39 -46 -42 -53 -37 -95 3 -25 -2 -96 -11 -159 -9 -62 -13
-117 -10 -122 3 -5 1 -9 -4 -9 -5 0 -7 -11 -5 -24 3 -13 0 -27 -6 -30 -6 -4
-11 -33 -11 -65 0 -44 -5 -65 -21 -85 -12 -16 -16 -26 -8 -26 9 0 10 -17 5
-67 -4 -38 -10 -93 -13 -123 -3 -30 -9 -60 -14 -66 -10 -13 -2 -44 12 -44 4 0
11 16 15 36 4 24 14 38 29 44 13 5 27 16 32 24 4 8 15 14 23 13 26 -3 149 64
144 78 -4 10 -15 9 -47 -4 -47 -18 -110 -52 -146 -78 l-23 -17 5 39 c4 22 9
67 13 100 4 33 11 69 17 80 6 11 10 25 8 30 -1 6 3 71 9 145 7 74 13 151 15
170 1 19 6 46 9 60 4 14 10 57 15 96 10 85 40 134 81 134 18 0 42 16 80 55 29
30 52 56 49 58 -2 3 -24 -11 -49 -29z"/>
<path d="M11230 1985 c-36 -13 -96 -35 -135 -50 -38 -15 -83 -30 -100 -34 -25
-6 -27 -8 -11 -14 16 -6 42 -1 106 21 8 3 17 6 20 7 3 1 17 7 32 13 15 6 53
19 85 28 59 17 83 30 83 45 0 12 -5 11 -80 -16z"/>
<path d="M11344 2001 c5 -8 56 -3 56 5 0 2 -14 4 -31 4 -16 0 -28 -4 -25 -9z"/>
<path d="M7836 1731 c-4 -7 -5 -15 -2 -18 9 -9 19 4 14 18 -4 11 -6 11 -12 0z"/>
<path d="M9870 1553 c-8 -3 -22 -11 -30 -18 -31 -25 -223 -80 -241 -69 -4 2
-10 0 -14 -6 -3 -5 -17 -10 -31 -10 -34 0 -71 -26 -78 -56 -4 -13 -18 -34 -31
-46 -14 -12 -28 -36 -31 -54 -3 -18 -10 -32 -16 -31 -5 1 -24 -27 -41 -63 -25
-51 -37 -66 -57 -68 -14 -2 -29 -8 -35 -12 -5 -4 -36 -13 -69 -19 -32 -6 -64
-15 -70 -20 -6 -4 -29 -12 -51 -16 -57 -10 -78 -45 -27 -45 16 0 32 3 36 8 4
4 11 7 14 8 20 2 100 26 120 36 20 11 26 9 45 -16 22 -27 22 -27 43 -8 11 11
26 35 33 53 25 65 28 74 42 104 8 17 17 32 20 35 3 3 22 30 42 62 19 31 45 59
56 63 12 3 21 10 21 15 0 16 44 34 78 31 17 -1 42 3 53 10 11 6 35 12 52 15
18 2 33 8 35 14 2 5 13 10 24 10 11 0 22 8 25 20 3 11 14 20 24 20 21 0 89 40
89 53 0 8 -8 8 -30 0z"/>
<path d="M10155 1525 l-30 -13 42 -1 c23 -1 45 -5 48 -11 3 -5 14 -10 23 -10
13 1 10 6 -11 25 -32 29 -32 29 -72 10z"/>
<path d="M7575 1490 c3 -5 8 -10 11 -10 2 0 4 5 4 10 0 6 -5 10 -11 10 -5 0
-7 -4 -4 -10z"/>
<path d="M10270 1480 c0 -9 39 -25 46 -18 2 3 -7 10 -21 16 -14 6 -25 7 -25 2z"/>
<path d="M10360 1450 c0 -10 26 -20 51 -20 11 0 33 -7 49 -15 17 -9 30 -11 30
-6 0 11 -18 18 -82 35 -27 7 -48 10 -48 6z"/>
<path d="M10948 1421 c-31 -18 -32 -20 -18 -41 7 -12 14 -12 43 -2 18 7 84 12
148 13 130 0 263 21 276 42 4 6 -4 8 -23 3 -87 -19 -159 -27 -260 -29 -94 -2
-115 1 -126 14 -12 15 -15 15 -40 0z"/>
<path d="M9960 1385 c-7 -8 -8 -15 -2 -15 5 0 15 7 22 15 7 8 8 15 2 15 -5 0
-15 -7 -22 -15z"/>
<path d="M10528 1393 c7 -3 16 -2 19 1 4 3 -2 6 -13 5 -11 0 -14 -3 -6 -6z"/>
<path d="M10579 1371 c13 -12 28 -21 35 -21 12 0 -5 14 -39 31 -16 8 -15 6 4
-10z"/>
<path d="M10780 1291 c0 -25 6 -27 13 -6 4 8 2 17 -3 20 -6 4 -10 -3 -10 -14z"/>
<path d="M10723 1205 c0 -27 2 -38 4 -22 2 15 2 37 0 50 -2 12 -4 0 -4 -28z"/>
<path d="M10775 1203 c-4 -27 -11 -65 -15 -85 -4 -21 -6 -54 -3 -73 4 -27 1
-35 -11 -35 -16 0 -22 -31 -17 -86 1 -12 -5 -24 -14 -28 -9 -3 -15 -18 -15
-36 0 -17 -5 -40 -10 -50 -13 -24 -19 -62 -25 -160 -3 -41 -5 -75 -6 -75 -1 0
-9 -48 -14 -90 -10 -83 -37 -242 -50 -299 -8 -33 -12 -63 -10 -67 3 -4 1 -20
-4 -35 -20 -64 -22 -84 -7 -84 10 0 17 14 21 38 4 20 12 51 18 69 8 24 7 35
-1 46 -10 12 -10 16 2 20 8 3 18 32 24 69 22 125 49 255 56 266 4 7 3 12 -2
12 -5 0 -2 21 6 46 14 42 14 47 0 55 -11 6 -15 19 -12 41 11 85 61 285 63 248
0 -14 -3 -41 -8 -60 -12 -44 -22 -160 -13 -140 4 8 15 26 24 40 16 24 21 45
38 180 5 36 12 77 16 93 5 20 3 27 -9 27 -11 0 -17 -15 -22 -50 -4 -27 -11
-50 -16 -50 -11 0 -12 -1 5 62 14 56 32 238 23 238 -3 0 -9 -21 -12 -47z"/>
<path d="M10707 1137 c-3 -8 -1 -20 4 -28 6 -10 9 -7 9 14 0 29 -5 35 -13 14z"/>
<path d="M9385 1111 c-19 -32 -48 -188 -35 -196 4 -3 11 18 15 45 4 28 13 74
21 102 13 51 13 70 -1 49z"/>
<path d="M10696 1053 c-6 -14 -5 -15 5 -6 7 7 10 15 7 18 -3 3 -9 -2 -12 -12z"/>
<path d="M8955 1043 c-31 -8 -53 -32 -61 -67 -8 -39 -21 -54 -114 -129 -105
-84 -157 -133 -197 -185 -10 -13 -34 -27 -53 -32 -19 -5 -56 -15 -82 -21 -27
-7 -48 -16 -48 -21 0 -5 -4 -7 -8 -4 -18 11 -318 -55 -305 -67 4 -5 -12 -5
-35 -1 -30 5 -42 3 -42 -6 0 -8 -9 -11 -26 -7 -18 3 -33 -2 -47 -16 l-20 -20
-16 21 c-14 19 -19 19 -41 7 -22 -12 -25 -20 -25 -64 0 -57 11 -66 26 -22 12
33 40 44 164 62 44 6 91 16 105 21 14 6 68 18 120 28 130 26 179 38 217 55 17
8 47 15 66 15 26 0 41 7 56 26 12 15 21 33 21 40 0 8 5 14 11 14 5 0 36 26 68
59 31 32 67 64 79 70 12 6 22 20 22 31 0 13 5 18 15 14 21 -8 47 15 40 35 -5
13 -4 13 6 4 10 -10 16 -9 31 4 10 9 18 22 18 30 0 7 8 13 18 13 23 0 96 86
88 105 -5 15 -15 17 -51 8z"/>
<path d="M9850 1000 c-9 -5 -20 -38 -26 -77 -18 -112 -44 -263 -60 -353 -17
-97 -21 -129 -28 -220 -4 -51 -3 -56 3 -25 5 22 14 63 21 90 6 28 18 88 25
135 8 47 17 94 20 105 15 51 38 195 40 240 1 28 7 60 14 73 15 29 11 45 -9 32z"/>
<path d="M10648 989 c-10 -5 -18 -21 -18 -35 0 -21 4 -25 23 -22 17 2 23 11
25 36 3 34 -2 38 -30 21z"/>
<path d="M9335 888 c-9 -25 -23 -113 -19 -118 10 -9 24 26 24 58 0 18 5 42 10
53 8 13 7 19 0 19 -6 0 -13 -6 -15 -12z"/>
<path d="M9922 865 c0 -16 2 -22 5 -12 2 9 2 23 0 30 -3 6 -5 -1 -5 -18z"/>
<path d="M10636 865 c-3 -8 -1 -15 4 -15 6 0 10 7 10 15 0 8 -2 15 -4 15 -2 0
-6 -7 -10 -15z"/>
<path d="M9950 833 c-19 -21 -21 -25 -7 -20 10 4 23 7 28 7 5 0 9 6 9 14 0 8
8 17 18 19 14 4 14 5 -3 6 -11 0 -31 -11 -45 -26z"/>
<path d="M9880 805 c-8 -9 -8 -15 -2 -15 6 0 17 -3 26 -6 12 -4 16 0 16 15 0
24 -22 28 -40 6z"/>
<path d="M1659 730 l-33 -27 18 -37 c14 -29 22 -36 37 -31 11 4 19 2 19 -5 0
-17 42 -2 63 22 19 23 23 73 6 84 -6 4 -26 10 -45 14 -27 6 -38 3 -65 -20z"/>
<path d="M9318 753 c-12 -23 -28 -97 -37 -168 -7 -61 -15 -84 -30 -97 -27 -21
-26 -26 2 -24 30 1 71 42 50 50 -15 6 -14 14 14 159 13 69 13 105 1 80z"/>
<path d="M9897 733 c-4 -3 -7 -22 -6 -42 l1 -36 9 39 c9 39 8 52 -4 39z"/>
<path d="M10622 708 c-1 -20 -5 -45 -8 -55 -5 -17 -5 -17 6 0 6 9 9 34 7 55
l-4 37 -1 -37z"/>
<path d="M9874 586 c-3 -21 -4 -39 -1 -42 3 -4 9 10 13 30 3 21 4 39 1 42 -3
4 -9 -10 -13 -30z"/>
<path d="M9378 566 c-20 -19 -43 -36 -50 -39 -7 -3 -4 -6 7 -6 18 0 61 36 79
67 11 19 4 15 -36 -22z"/>
<path d="M2073 544 c-3 -9 -2 -19 4 -23 5 -3 12 -14 16 -23 12 -33 67 -18 67
18 0 39 -73 63 -87 28z"/>
<path d="M9862 480 c0 -14 2 -19 5 -12 2 6 2 18 0 25 -3 6 -5 1 -5 -13z"/>
<path d="M9841 364 c0 -11 3 -14 6 -6 3 7 2 16 -1 19 -3 4 -6 -2 -5 -13z"/>
<path d="M7832 343 c-12 -22 -19 -173 -9 -190 4 -6 2 -13 -4 -15 -15 -5 -22
-118 -8 -118 6 0 7 -4 4 -10 -3 -5 -1 -10 4 -10 6 0 11 23 12 53 0 28 4 108 8
177 4 69 7 127 5 128 -1 2 -7 -5 -12 -15z"/>
<path d="M9822 260 c0 -14 2 -19 5 -12 2 6 2 18 0 25 -3 6 -5 1 -5 -13z"/>
<path d="M9800 180 c0 -5 5 -10 10 -10 6 0 10 5 10 10 0 6 -4 10 -10 10 -5 0
-10 -4 -10 -10z"/>
<path d="M9789 124 c-1 -5 -3 -19 -4 -30 -1 -12 -5 -33 -9 -47 -3 -14 -2 -28
3 -31 9 -6 25 103 16 112 -3 3 -6 1 -6 -4z"/>
<path d="M7758 3 c6 -2 18 -2 25 0 6 3 1 5 -13 5 -14 0 -19 -2 -12 -5z"/>
</g>
</svg>
